<?xml version="1.0" encoding="UTF-8"?><svg id="a" xmlns="http://www.w3.org/2000/svg" viewBox="0 0 429.95 263.34"><defs><style>.b,.c{fill:#fff;}.c{stroke:#f1f1f1;stroke-miterlimit:10;}</style></defs><g><polygon class="b" points="304.32 72.67 262.36 145.34 178.45 145.34 304.32 72.67"/><polygon class="b" points="178.45 0 178.45 145.34 136.5 72.67 178.45 0"/><polygon class="b" points="262.36 0 178.45 0 304.32 72.67 262.36 0"/></g><g><polygon class="b" points="274.17 193.21 290.52 193.21 290.52 234.57 300.29 234.57 300.29 193.21 316.64 193.21 316.64 183.37 274.17 183.37 274.17 193.21"/><path class="b" d="M416.2,215.62c5.32-2.43,8.83-8.16,8.83-14.56,0-8.75-6.44-15.87-14.35-15.87h-28.68v50.3h9.77v-18.63h13.37l12.93,18.63h11.88l-13.75-19.87Zm-.93-14.56c0,3.28-2.06,5.95-4.58,5.95h-18.91v-11.98h18.91c2.53,0,4.58,2.7,4.58,6.03Z"/><path class="b" d="M254.31,183.82h-11.53l-22.37,50.31h10.7l6.19-13.91h22.49l6.19,13.91h10.7l-22.19-49.9-.18-.41Zm1.13,26.62h-13.79l6.9-15.51,6.9,15.51Z"/><path class="b" d="M33.9,183.82h-11.53L0,234.12H10.7l6.19-13.91h22.49l6.19,13.91h10.7l-22.19-49.9-.18-.41Zm1.13,26.62h-13.79l6.9-15.51,6.9,15.51Z"/><path class="b" d="M204.28,213.69c0,6.05-4.89,10.97-10.9,10.97h-7.05c-6.05,0-10.97-4.92-10.97-10.97v-30.17h-9.77v30.17c0,11.44,9.3,20.74,20.74,20.74h7.05c11.44,0,20.74-9.3,20.74-20.74v-30.17h-9.84v30.17Z"/><polygon class="b" points="115.92 192.99 132.27 192.99 132.27 234.8 142.04 234.8 142.04 192.99 158.39 192.99 158.39 183.15 115.92 183.15 115.92 192.99"/><path class="b" d="M101.22,221.27c-2.75,2.2-6.47,3.44-10.76,3.58l-1.67,.05v.06h-2.2l-1-.04c-5-.21-8.96-1.78-11.76-4.65-2.76-2.83-4.22-6.75-4.22-11.34s1.46-8.43,4.22-11.27c2.81-2.88,6.77-4.44,11.76-4.65l.89-.04h2.97l1,.04c3.62,.14,6.69,1.06,9.38,2.83l4.1,2.69,5.42-8.12-4.1-2.69c-4.24-2.85-9.04-4.32-14.68-4.48h-.4v-.03h-3.63l-1.07,.03c-7.57,.24-14,2.84-18.59,7.51-4.54,4.62-7.04,11.07-7.04,18.17s2.5,13.63,7.03,18.16c4.57,4.73,11,7.36,18.6,7.6l1.09,.04h2.94l1.08-.04c6.56-.24,12.35-2.26,16.75-5.85l3.89-3.06-6.25-7.67-3.74,3.16Z"/><path class="b" d="M348.03,183.25h-1.54c-7.57,.24-14,2.84-18.59,7.51-4.54,4.62-7.04,11.07-7.04,18.17s2.5,13.63,7.02,18.16c4.57,4.73,11,7.36,18.63,7.6h1.54c7.61-.24,14.04-2.87,18.6-7.59,4.54-4.54,7.03-10.99,7.03-18.17s-2.5-13.55-7.04-18.17c-4.59-4.67-11.02-7.27-18.62-7.51Zm15.88,25.68c0,4.59-1.46,8.51-4.22,11.34-2.81,2.88-6.77,4.44-11.74,4.65h-1.34c-5-.21-8.96-1.78-11.76-4.65-2.76-2.83-4.22-6.75-4.22-11.34s1.46-8.43,4.22-11.27c2.81-2.88,6.77-4.44,11.74-4.65h1.34c5,.21,8.96,1.78,11.76,4.65,2.76,2.83,4.22,6.73,4.22,11.27Z"/></g><line class="c" x1="137.16" y1="256.3" y2="256.3"/><line class="c" x1="429.95" y1="256.3" x2="295.41" y2="256.3"/><g><path class="b" d="M155.49,249.23c1.11-.17,2.44-.29,3.88-.29,2.62,0,4.49,.61,5.73,1.76,1.26,1.16,1.99,2.79,1.99,5.08s-.71,4.2-2.04,5.5c-1.32,1.32-3.51,2.04-6.26,2.04-1.3,0-2.39-.06-3.32-.17v-13.92Zm1.83,12.51c.46,.08,1.13,.1,1.85,.1,3.91,0,6.03-2.18,6.03-6,.02-3.34-1.87-5.46-5.73-5.46-.94,0-1.66,.08-2.14,.19v11.17Z"/><path class="b" d="M180.75,249.04v14.15h-1.83v-14.15h1.83Z"/><path class="b" d="M204.17,262.56c-.82,.29-2.44,.78-4.35,.78-2.14,0-3.91-.55-5.29-1.87-1.22-1.18-1.97-3.07-1.97-5.27,.02-4.22,2.92-7.31,7.66-7.31,1.64,0,2.92,.36,3.53,.65l-.44,1.49c-.76-.34-1.7-.61-3.13-.61-3.44,0-5.69,2.14-5.69,5.69s2.16,5.71,5.46,5.71c1.2,0,2.02-.17,2.44-.38v-4.22h-2.88v-1.47h4.66v6.8Z"/><path class="b" d="M218.24,249.04v14.15h-1.83v-14.15h1.83Z"/><path class="b" d="M233.57,250.59h-4.3v-1.55h10.48v1.55h-4.32v12.6h-1.85v-12.6Z"/><path class="b" d="M251.48,258.74l-1.47,4.45h-1.89l4.81-14.15h2.21l4.83,14.15h-1.95l-1.51-4.45h-5.02Zm4.64-1.43l-1.39-4.07c-.32-.92-.52-1.76-.74-2.58h-.04c-.21,.84-.44,1.7-.71,2.56l-1.38,4.09h4.26Z"/><path class="b" d="M271.5,249.04h1.83v12.62h6.05v1.53h-7.87v-14.15Z"/></g></svg>