<?xml version="1.0" encoding="UTF-8"?><svg id="a" xmlns="http://www.w3.org/2000/svg" viewBox="0 0 185.112 186.23"><defs><style>.b{fill:#fff;}.c{fill:none;stroke:#fff;stroke-miterlimit:10;stroke-width:.25px;}</style></defs><line class="c" x1="92.87" x2="92.87" y2="2.602"/><line class="c" x1="91.569" y1="1.301" x2="94.172" y2="1.301"/><path class="b" d="M158.002,28.227C141.913,12.138,120.942,2.708,98.43,1.308v.245c48.174,3.041,86.439,43.193,86.439,92.121,0,50.902-41.412,92.314-92.314,92.314S.242,144.576,.242,93.674C.242,44.546,38.82,4.263,87.272,1.515v-.244c-22.736,1.271-43.933,10.726-60.164,26.956C9.627,45.709,0,68.952,0,93.674s9.627,47.965,27.109,65.447c17.482,17.481,40.724,27.109,65.447,27.109s47.965-9.627,65.447-27.109c17.481-17.482,27.109-40.724,27.109-65.447s-9.627-47.965-27.109-65.447h0Z"/></svg>